<?xml version="1.0" encoding="UTF-8"?>
<svg id="Ebene_8" data-name="Ebene 8" xmlns="http://www.w3.org/2000/svg" width="615.02mm" height="475.65mm" viewBox="0 0 1743.35 1348.3">
  <defs>
    <style>
      .cls-1 {
        opacity: .9;
        stroke-width: 6px;
      }

      .cls-1, .cls-2 {
        stroke-dasharray: 0 0 0 0 0 0 0 0 0 0 0 0;
      }

      .cls-1, .cls-2, .cls-3, .cls-4, .cls-5, .cls-6, .cls-7, .cls-8 {
        stroke: #1d1d1b;
      }

      .cls-1, .cls-2, .cls-3, .cls-5 {
        stroke-miterlimit: 10;
      }

      .cls-1, .cls-4, .cls-7 {
        fill: #fff;
      }

      .cls-2 {
        stroke-width: 4px;
      }

      .cls-2, .cls-6, .cls-9 {
        fill: #1d1d1b;
      }

      .cls-3 {
        stroke-dasharray: 0 0 0 0 0 0 0 7 0 7 0 7;
      }

      .cls-3, .cls-4, .cls-5, .cls-6, .cls-7, .cls-8 {
        stroke-width: 3px;
      }

      .cls-3, .cls-5, .cls-6, .cls-7, .cls-8 {
        stroke-linecap: round;
      }

      .cls-3, .cls-5, .cls-8 {
        fill: none;
      }

      .cls-4, .cls-6, .cls-7, .cls-8 {
        stroke-linejoin: round;
      }

      .cls-5 {
        stroke-dasharray: 0 0 0 0 0 0 0 9 0 9 0 9;
      }

      .cls-9 {
        stroke-width: 0px;
      }
    </style>
  </defs>
  <g id="Ebene_7" data-name="Ebene 7">
    <path class="cls-9" d="m775.39,932.23c3.78,10.78,8.09,21.43,12.91,31.89-6.56-9.47-12.7-19.29-18.38-29.42l5.47-2.47Z"/>
    <path class="cls-9" d="m786.29,912.24c5.74,13.61,12.52,26.87,20.29,39.6-9.41-11.58-17.99-23.92-25.65-36.9l5.36-2.7Z"/>
    <path class="cls-9" d="m803.81,912.43c3.63,8.58,6.97,17.25,10.02,25.98-4.86-7.87-9.95-15.57-15.26-23.07l5.24-2.91Z"/>
    <path class="cls-9" d="m811.37,895.88c4.06,10.66,7.34,21.55,9.83,32.54-4.39-10.38-9.49-20.38-15.23-29.92l5.4-2.62Z"/>
    <path class="cls-9" d="m818.86,874.1c4.89,10.33,8.75,21.04,11.54,31.93-4.68-10.22-10.3-19.91-16.72-28.9l5.18-3.03Z"/>
    <path class="cls-9" d="m825.49,862.82c4.54,10.55,9.97,20.8,16.26,30.6-7.87-8.58-15.09-17.87-21.54-27.76l5.28-2.84Z"/>
    <polygon class="cls-9" points="753.04 933.94 761.61 972.63 747.29 935.68 753.04 933.94"/>
    <polygon class="cls-9" points="765.29 929.98 765.2 968.7 759.3 930.43 765.29 929.98"/>
    <path class="cls-9" d="m782.96,919.61c1.15,9.98,1.74,19.97,1.78,29.91-2.03-9.73-4.58-19.29-7.64-28.64l5.86-1.28Z"/>
    <path class="cls-9" d="m797.12,908.99c2.69,11.44,4.73,22.99,6.11,34.55-3.34-11.16-7.29-22.07-11.82-32.68l5.7-1.87Z"/>
    <path class="cls-9" d="m803.83,896.5c7.94,10.42,12.6,22.88,13.55,35.36-2.93-12.17-9.38-23.16-18.03-31.36l4.48-3.99Z"/>
    <path class="cls-9" d="m821.54,881.57c3.35,10.57,6.24,21.25,8.67,31.99-4.33-10.12-9.07-20.03-14.2-29.67l5.53-2.32Z"/>
    <polygon class="cls-9" points="840.68 856.71 842.87 892.31 834.74 857.58 840.68 856.71"/>
    <polygon class="cls-9" points="738.01 937.42 737.46 966.53 732.03 937.93 738.01 937.42"/>
    <path class="cls-9" d="m719.16,925.85c-.35,17.53.76,35.18,3.37,52.69-4.56-17.1-7.71-34.67-9.37-52.47l6-.22Z"/>
    <polygon class="cls-9" points="700.02 916.96 696.65 971.42 694.02 916.92 700.02 916.96"/>
    <path class="cls-9" d="m679.71,899.16c-2.52,16.06-3.73,32.4-3.59,48.82-2.14-16.28-2.94-32.81-2.38-49.38l5.97.56Z"/>
    <path class="cls-9" d="m654.96,893.33c-.98,14.35-.97,28.83.05,43.32-3.01-14.2-5.04-28.69-6.05-43.31h6Z"/>
    <path class="cls-9" d="m645.76,877.82c-7.08,9.07-11.86,20.3-13.42,32.24-.43-12.04,2.4-24.44,8.39-35.51l5.03,3.27Z"/>
    <path class="cls-9" d="m658.53,885.48c-5.74,14.19-12.34,27.98-19.73,41.25,5.58-14.13,10.26-28.54,14.03-43.13l5.7,1.88Z"/>
    <path class="cls-9" d="m673.81,900.52c-5.01,13.18-10.4,26.18-16.18,38.97,3.9-13.48,7.38-27.06,10.43-40.7l5.75,1.73Z"/>
    <polygon class="cls-9" points="696.08 921.07 684.39 955.64 690.25 919.63 696.08 921.07"/>
    <polygon class="cls-9" points="713.38 928.65 710.37 974.25 707.38 928.65 713.38 928.65"/>
    <path class="cls-9" d="m730.33,934.63c-1.25,11.46-.42,23.34,2.54,34.85-4.85-10.85-7.8-22.75-8.54-34.98l6,.13Z"/>
    <path class="cls-9" d="m751.81,935.61c-.66,15.76-2.31,31.42-4.92,46.85.62-15.64.25-31.25-1.08-46.72l6-.13Z"/>
    <path class="cls-9" d="m642,864.54c-6.99,12.69-13.25,25.84-18.73,39.38,3.58-14.16,8.02-28.16,13.29-41.9l5.44,2.52Z"/>
    <path class="cls-9" d="m673.14,903.93c-.59,22.35-4.47,44.45-11.4,65.4,5-21.49,6.8-43.56,5.4-65.29l6-.11Z"/>
    <path class="cls-9" d="m690.19,916.69c-2.34,9.13-4.46,18.32-6.33,27.58-.94,4.63-1.82,9.27-2.64,13.93-.4,2.33-.84,4.66-1.14,6.99-.28,2.32-.34,4.7.37,6.98-.95-2.19-1.15-4.65-1.11-7.03.05-2.4.25-4.75.4-7.12.33-4.73.71-9.46,1.16-14.19.89-9.46,2.04-18.9,3.42-28.32l5.88,1.18Z"/>
    <path class="cls-9" d="m705.66,925.91c-.57,17.57-2.06,35.07-4.44,52.38.39-17.48-.13-34.92-1.56-52.24l6-.15Z"/>
    <path class="cls-9" d="m725.34,939.96c.32,16.18-.4,32.31-2.15,48.27-.25-16.05-1.54-32.02-3.83-47.78l5.98-.49Z"/>
    <path class="cls-9" d="m744.83,939.7c.13,15.34.89,30.71,2.3,46.07-3.38-15.05-6.15-30.27-8.28-45.63l5.98-.44Z"/>
    <path class="cls-9" d="m771.19,936.41c1.93,14.02,5.61,27.93,10.98,41.28-7.17-12.48-12.87-25.96-16.85-40.05l5.87-1.24Z"/>
    <polygon class="cls-9" points="786.93 919.07 794.18 957.09 781.14 920.65 786.93 919.07"/>
    <path class="cls-9" d="m803.86,901.29c6.13,14.25,11.35,28.83,15.63,43.62-6.16-14.11-13.18-27.77-20.98-40.89l5.35-2.72Z"/>
    <path class="cls-9" d="m816.12,882.11c5.72,14.35,9.57,29.3,11.51,44.37-3.9-14.69-9.62-28.76-16.93-41.79l5.42-2.58Z"/>
    <path class="cls-9" d="m831.49,871.6c.96,6.23,2.17,12.44,3.65,18.61.77,3.08,1.47,6.19,2.52,9.12,1.04,2.92,2.55,5.76,5.03,7.81-2.78-1.63-4.86-4.34-6.4-7.19-1.57-2.88-2.75-5.86-4.01-8.81-2.45-5.94-4.67-12-6.64-18.16l5.84-1.38Z"/>
    <path class="cls-9" d="m839.86,841.08c7.57,14.52,13.09,29.95,16.44,45.7-5.27-15.21-12.58-29.58-21.58-42.6l5.14-3.09Z"/>
    <polygon class="cls-9" points="648.81 892.41 636.99 930.61 642.96 891.07 648.81 892.41"/>
    <path class="cls-9" d="m641.1,864.37c-12.76,15.33-21.84,34.06-25.96,54.09,2.14-20.33,9.4-40.36,21.16-57.69l4.8,3.6Z"/>
    <path class="cls-9" d="m662.03,899.7c-3.01,20.56-8.54,40.62-16.35,59.61,5.93-19.66,9.41-39.93,10.38-60.2l5.97.58Z"/>
    <path class="cls-9" d="m850.31,409.37c24.2,12.85,43.53,33.79,54.31,58.23-12.58-23.57-33.09-42.39-56.92-52.83l2.62-5.4Z"/>
    <path class="cls-9" d="m839.96,388.4c11.56,6.38,23.22,12.89,34.04,20.69,5.4,3.9,10.58,8.12,15.32,12.78,4.74,4.66,9.04,9.76,12.65,15.29-4.02-5.24-8.65-9.96-13.67-14.18-5.01-4.23-10.4-7.98-15.98-11.39-11.17-6.83-23.08-12.35-35.07-17.83l2.7-5.36Z"/>
    <path class="cls-9" d="m818.26,349.5c4.14.68,8.48.53,12.71-.38,4.23-.91,8.36-2.57,12.15-4.87,3.79-2.3,7.24-5.23,10.11-8.69,2.88-3.46,5.17-7.47,6.61-11.83-.95,4.49-2.83,8.83-5.41,12.73-2.58,3.9-5.85,7.38-9.62,10.27-3.77,2.89-8.04,5.2-12.65,6.73-4.6,1.53-9.54,2.28-14.53,2.01l.62-5.97Z"/>
    <path class="cls-9" d="m837.75,370.6c20.43,3.4,40.24,9.64,58.71,18.39-19.23-6.91-39.3-11.08-59.41-12.43l.7-5.96Z"/>
    <path class="cls-9" d="m845.34,387.81c18.65,4.64,36.45,12.06,52.64,21.85-17.13-8.03-35.34-13.4-53.78-15.96l1.14-5.89Z"/>
    <path class="cls-9" d="m653.18,378.99c-25.32,13.8-49.66,29.54-72.75,47.05,21.83-19.06,45.14-36.54,69.7-52.21l3.05,5.17Z"/>
    <path class="cls-9" d="m640.42,410.59c-23.57,7.88-43.89,26.55-53.78,50.33,8.01-24.47,27.11-45.53,51.65-55.94l2.13,5.61Z"/>
    <path class="cls-9" d="m633.09,437.03c-15.6,13.76-30.11,28.88-43.3,45.18,11.58-17.48,24.67-34.06,39.12-49.49l4.18,4.3Z"/>
    <path class="cls-9" d="m650.9,402.93c-20.86,8.6-42.45,15.17-64.37,19.65,21.44-6.41,42.17-14.84,61.84-25.09l2.53,5.44Z"/>
    <polygon class="cls-9" points="678.96 380.18 612.52 340.14 681.85 374.92 678.96 380.18"/>
    <path class="cls-9" d="m667.4,381.86c-22.05-3.72-44.94-3.58-67.28.52,21.89-6.05,45.02-8.29,68.01-6.48l-.73,5.96Z"/>
    <polygon class="cls-9" points="635.25 423.7 594.68 455.69 631.27 419.21 635.25 423.7"/>
    <path class="cls-9" d="m832.1,372.88c22.68-3.75,45.12-9.54,66.95-17.32-21.07,9.63-43.09,17.41-65.71,23.19l-1.23-5.87Z"/>
    <path class="cls-9" d="m853.44,430.78c10.06,8.32,21.04,15.69,32.74,21.92-12.5-4.41-24.65-10.11-36.2-17.02l3.46-4.9Z"/>
    <path class="cls-9" d="m716.66,240.24c-.71-8.56-2.77-17.17-6.15-25.39,5.13,7.26,9.23,15.44,12.03,24.2l-5.88,1.19Z"/>
    <polygon class="cls-9" points="724.82 231.07 724.72 205.71 730.77 230.34 724.82 231.07"/>
    <polygon class="cls-9" points="732.38 224.9 736.06 206.11 738.38 225.11 732.38 224.9"/>
    <polygon class="cls-9" points="742.75 230.74 748.24 211.19 748.71 231.49 742.75 230.74"/>
    <polygon class="cls-9" points="753.04 232.53 762.2 213.99 758.75 234.38 753.04 232.53"/>
    <polygon class="cls-9" points="760.56 233.91 770.71 221.13 765.87 236.71 760.56 233.91"/>
    <polygon class="cls-9" points="746.68 229.52 758.08 205.9 752.34 231.5 746.68 229.52"/>
    <polygon class="cls-9" points="718.68 230.38 717.59 209.57 724.56 229.21 718.68 230.38"/>
    <polygon class="cls-9" points="729.03 233.15 731.36 202.09 732.03 233.29 729.03 233.15"/>
    <path class="cls-9" d="m756.06,232.2c4.85-7.2,9.06-14.9,12.52-22.96-2.53,8.41-5.86,16.62-9.94,24.49l-2.58-1.53Z"/>
    <polygon class="cls-9" points="765.47 234.47 777.26 224.55 767.61 236.57 765.47 234.47"/>
    <path class="cls-9" d="m711.57,236.04c-1.93-6.56-3.43-13.22-4.51-19.9,2.05,6.46,4.5,12.76,7.32,18.85l-2.81,1.05Z"/>
    <polygon class="cls-9" points="737.14 233.07 744.38 205.83 743.07 233.99 737.14 233.07"/>
    <path class="cls-9" d="m835.58,541.97c24.2,12.85,43.53,33.79,54.31,58.23-12.58-23.57-33.09-42.39-56.92-52.83l2.62-5.4Z"/>
    <path class="cls-9" d="m825.23,521c11.56,6.38,23.22,12.89,34.04,20.69,5.4,3.9,10.58,8.12,15.32,12.78,4.74,4.66,9.04,9.76,12.65,15.29-4.02-5.24-8.65-9.96-13.67-14.18-5.01-4.23-10.4-7.98-15.98-11.39-11.17-6.83-23.08-12.35-35.07-17.83l2.7-5.36Z"/>
    <path class="cls-9" d="m823.03,503.21c20.43,3.4,40.24,9.64,58.71,18.39-19.23-6.91-39.3-11.08-59.41-12.43l.7-5.96Z"/>
    <path class="cls-9" d="m830.62,520.41c18.65,4.64,36.45,12.06,52.64,21.85-17.13-8.03-35.34-13.4-53.78-15.96l1.14-5.89Z"/>
    <path class="cls-9" d="m817.38,505.48c22.68-3.75,45.12-9.54,66.95-17.32-21.07,9.63-43.09,17.41-65.71,23.19l-1.23-5.87Z"/>
    <path class="cls-9" d="m838.97,630.07c24.2,12.85,43.53,33.79,54.31,58.23-12.58-23.57-33.09-42.39-56.92-52.83l2.62-5.4Z"/>
    <path class="cls-9" d="m828.62,609.1c11.56,6.38,23.22,12.89,34.04,20.69,5.4,3.9,10.58,8.12,15.32,12.78,4.74,4.66,9.04,9.76,12.65,15.29-4.02-5.24-8.65-9.96-13.67-14.18-5.01-4.23-10.4-7.98-15.98-11.39-11.17-6.83-23.08-12.35-35.07-17.83l2.7-5.36Z"/>
    <path class="cls-9" d="m826.41,591.3c20.43,3.4,40.24,9.64,58.71,18.39-19.23-6.91-39.3-11.08-59.41-12.43l.7-5.96Z"/>
    <path class="cls-9" d="m834.01,608.51c18.65,4.64,36.45,12.06,52.64,21.85-17.13-8.03-35.34-13.4-53.78-15.96l1.14-5.89Z"/>
    <path class="cls-9" d="m820.77,593.58c22.68-3.75,45.12-9.54,66.95-17.32-21.07,9.63-43.09,17.41-65.71,23.19l-1.23-5.87Z"/>
    <path class="cls-9" d="m846.88,714.77c24.2,12.85,43.53,33.79,54.31,58.23-12.58-23.57-33.09-42.39-56.92-52.83l2.62-5.4Z"/>
    <path class="cls-9" d="m836.53,693.8c11.56,6.38,23.22,12.89,34.04,20.69,5.4,3.9,10.58,8.12,15.32,12.78,4.74,4.66,9.04,9.76,12.65,15.29-4.02-5.24-8.65-9.96-13.67-14.18-5.01-4.23-10.4-7.98-15.98-11.39-11.17-6.83-23.08-12.35-35.07-17.83l2.7-5.36Z"/>
    <path class="cls-9" d="m834.32,676.01c20.43,3.4,40.24,9.64,58.71,18.39-19.23-6.91-39.3-11.08-59.41-12.43l.7-5.96Z"/>
    <path class="cls-9" d="m841.91,693.21c18.65,4.64,36.45,12.06,52.64,21.85-17.13-8.03-35.34-13.4-53.78-15.96l1.14-5.89Z"/>
    <path class="cls-9" d="m828.67,678.28c22.68-3.75,45.12-9.54,66.95-17.32-21.07,9.63-43.09,17.41-65.71,23.19l-1.23-5.87Z"/>
    <path class="cls-9" d="m834.94,791.89c17.61,21,27.65,47.66,28.46,74.36-2.81-26.56-14.74-51.72-32.91-70.34l4.45-4.02h0Z"/>
    <path class="cls-9" d="m833.22,768.56c16.47,20.35,33.95,42.13,39.16,68.49-1.76-6.37-4.28-12.48-7.34-18.28-9.27-17.49-22.82-31.91-36.34-46.26,0,0,4.51-3.95,4.51-3.95h0Z"/>
    <path class="cls-9" d="m837.86,751.24c17.66,10.83,33.68,24.05,47.5,39.1-15.23-13.63-32.26-25.03-50.39-33.84l2.89-5.26h0Z"/>
    <path class="cls-9" d="m838.43,770.04c15.54,11.31,29.25,24.87,40.58,40.02-12.86-13.87-27.72-25.69-43.85-34.99l3.27-5.03h0Z"/>
    <path class="cls-9" d="m831.77,751.23c22.43,5.05,45.4,8.1,68.55,9.09-23.15,1.01-46.48-.04-69.61-3.18l1.06-5.91h0Z"/>
    <path class="cls-9" d="m672.63,483.39c-28.15,6.26-55.89,14.64-82.93,25.08,26.25-12.28,53.49-22.62,81.43-30.89l1.5,5.81h0Z"/>
    <path class="cls-9" d="m651.62,510.23c-24.83,1.05-49.53,13.37-65.61,33.49,14.47-21.3,38.65-36.25,65.11-39.47l.5,5.98h0Z"/>
    <path class="cls-9" d="m663.81,505.76c-22.43,2.49-44.99,2.84-67.29,1.07,22.37-.23,44.63-2.59,66.37-7l.93,5.93h0Z"/>
    <polygon class="cls-9" points="643.03 521.39 595.19 540.91 640.45 515.98 643.03 521.39 643.03 521.39"/>
    <path class="cls-9" d="m676.24,523.79c-26.37,11.65-51.94,25.31-76.41,40.85,23.34-17.19,48.02-32.67,73.79-46.25l2.61,5.4h0Z"/>
    <path class="cls-9" d="m660.9,554.23c-24.14,5.89-45.95,22.82-57.77,45.7,10.02-23.73,30.8-43.13,56.12-51.46l1.66,5.77h0Z"/>
    <path class="cls-9" d="m671.98,547.46c-21.5,6.84-43.56,11.6-65.78,14.24,21.89-4.61,43.25-11.29,63.71-19.87l2.07,5.63h0Z"/>
    <polygon class="cls-9" points="654.66 566.86 611.57 595.38 651.07 562.06 654.66 566.86 654.66 566.86"/>
    <path class="cls-9" d="m666.31,805.68c-27.5,8.67-54.42,19.42-80.45,32.15,25.09-14.5,51.34-27.16,78.45-37.81l2,5.66h0Z"/>
    <path class="cls-9" d="m647.7,834.23c-24.65,3.19-48.19,17.6-62.47,39.03,12.58-22.47,35.38-39.46,61.46-44.95l1.01,5.91h0Z"/>
    <path class="cls-9" d="m659.46,828.73c-22.13,4.42-44.58,6.71-66.95,6.88,22.27-2.16,44.24-6.44,65.52-12.71l1.43,5.83h0Z"/>
    <polygon class="cls-9" points="640.11 846.1 594.13 869.68 637.07 840.93 640.11 846.1 640.11 846.1"/>
    <path class="cls-9" d="m673.66,698.58c-28.72,2.52-57.33,7.2-85.5,14.01,27.63-8.74,55.99-15.43,84.77-19.97l.73,5.96h0Z"/>
    <path class="cls-9" d="m649.32,722.44c-24.75-2.21-50.85,6.77-69.43,24.61,17.14-19.22,43.06-30.88,69.72-30.61l-.29,5.99h0Z"/>
    <path class="cls-9" d="m661.99,719.6c-22.56-.47-44.98-3.08-66.86-7.75,22.21,2.7,44.58,3.27,66.71,1.75l.14,6h0Z"/>
    <polygon class="cls-9" points="639.35 732.38 589.36 745.47 637.49 726.67 639.35 732.38 639.35 732.38"/>
    <path class="cls-9" d="m679.32,644.26c-28.72,2.52-57.33,7.2-85.5,14.01,27.63-8.74,55.99-15.43,84.77-19.97l.73,5.96h0Z"/>
    <path class="cls-9" d="m654.99,668.11c-24.75-2.21-50.85,6.77-69.43,24.61,17.14-19.22,43.06-30.88,69.72-30.61l-.29,5.99h0Z"/>
    <path class="cls-9" d="m667.65,665.28c-22.56-.47-44.98-3.08-66.86-7.75,22.21,2.7,44.58,3.27,66.71,1.75l.14,6h0Z"/>
    <polygon class="cls-9" points="645.01 678.06 595.02 691.15 643.15 672.35 645.01 678.06 645.01 678.06"/>
    <path class="cls-9" d="m778.71,708.63c-28.72,2.52-57.33,7.2-85.5,14.01,27.63-8.74,55.99-15.43,84.77-19.97l.73,5.96h0Z"/>
    <path class="cls-9" d="m754.37,732.49c-24.75-2.21-50.85,6.77-69.43,24.61,17.14-19.22,43.06-30.88,69.72-30.61l-.29,5.99h0Z"/>
    <path class="cls-9" d="m767.04,729.66c-22.56-.47-44.98-3.08-66.86-7.75,22.21,2.7,44.58,3.27,66.71,1.75l.14,6h0Z"/>
    <polygon class="cls-9" points="744.4 742.44 694.41 755.53 742.54 736.73 744.4 742.44 744.4 742.44"/>
    <path class="cls-9" d="m701.81,605.68c-28.67-3.06-57.64-3.97-86.6-2.71,28.8-3.26,57.92-4.36,87.03-3.28l-.43,5.98h0Z"/>
    <path class="cls-9" d="m673.34,624.41c-23.87-6.94-51.2-3.14-72.87,10.79,20.52-15.57,48.21-22.02,74.31-16.61l-1.44,5.82h0Z"/>
    <path class="cls-9" d="m686.31,624.07c-22.05-4.8-43.54-11.68-64.11-20.47,21.28,6.92,43.12,11.8,65.13,14.56l-1.02,5.91h0Z"/>
    <polygon class="cls-9" points="661.63 632.25 610.06 635.47 660.91 626.29 661.63 632.25 661.63 632.25"/>
  </g>
  <g id="Ebene_3" data-name="Ebene 3">
    <g id="Ebene_5" data-name="Ebene 5">
      <path class="cls-6" d="m851.56,397.43c17.34-21.5,25.96-49.85,23.52-77.36-1.72-19.35-8.57-39.3-2.21-57.66,2.24-6.48,5.71-14.64.65-19.27,12.51-9.89,11.35-28.65,13.92-44.38,4.45-27.17,24.46-51.22,50.36-60.54-3.89.05-7.77.1-11.66.14,4.33-6,3.82-15.02-1.15-20.49,1.72,9.45-2.01,19.7-9.39,25.85-1.13-1.85-2.26-3.69-3.39-5.54-10.28,2.35-10.94,16.66-16.91,25.35-6.08,8.84-19.56,14.78-17.7,25.34.62,3.55,3.07,6.59,3.57,10.16,1.33,9.3-10.56,16.27-10.07,25.66.25,4.76,3.76,9.24,2.71,13.89-1.49,6.61-11.24,9.29-11.67,16.06-.22,3.43,2.17,6.4,3.39,9.61,3.55,9.33-2.91,19.54-2.28,29.5.42,6.66,4.02,12.95,3.65,19.62-.56,9.92-9.53,17.31-12.39,26.82-2.09,6.96-.74,14.42-.4,21.68s-.75,15.36-6.27,20.1c-3.3,2.83-7.92,4.2-10.32,7.83-2.14,3.26-1.77,7.95.86,10.83,2.63,2.88,7.5,3.86,13.19-3.19Z"/>
      <path class="cls-6" d="m862.54,450.55c21.91,9.08,39.94,25.64,55.17,43.83,15.22,18.19,28.07,38.23,42.79,56.83,2.33,2.94,5.47,6.15,9.16,5.48-.1-10.47,2.12-20.96,6.47-30.49.85,7.15,1.7,14.3,2.55,21.45,13.1-10.82,21.72-26.91,23.47-43.81,2.76,5.3,4.35,11.2,4.62,17.17,11.68-10.2,19.15-25.09,20.35-40.55,1.05,5.93,2.14,11.96,4.9,17.32,4.54-13.04,9.08-26.08,13.63-39.13.38,8.04.77,16.08,1.15,24.12,11.87-.25,24.08-.57,35.03-5.17,6.91-2.91,13.03-7.41,19.79-10.64,7.07-3.38,14.83-5.33,22.66-5.71,3.91-.19,7.94,0,11.6-1.39,2.71-1.03,5.03-2.85,7.63-4.12,2.94-1.43,6.17-2.13,9.36-2.82,6.28-1.35,12.55-2.69,18.83-4.04,10.53-2.26,21.21-4.57,30.77-9.54,9.56-4.97,18.03-13,21.09-23.33,1.55,6.76.09,14.16-3.92,19.83-1.44,2.03-3.27,4.54-2.09,6.73,1.1,2.05,3.93,2.09,6.21,2.51,4.97.9,9.18,5.09,10.12,10.06-6.56-3.55-13.48-6.94-20.92-7.41-6.17-.39-12.27,1.26-18.23,2.89-2.33.64-4.65,1.27-6.98,1.91-8.4,2.3-16.79,4.6-25.15,7.04-7.15,2.09-14.26,4.28-21.37,6.47-7.6,2.34-15.21,4.69-22.81,7.03-14.48,4.46-29.1,8.98-42.18,16.63-6.1,3.56-12.63,7.96-19.58,6.7-2.36-.43-4.69-1.51-7.05-1.09-2.48.45-4.34,2.44-6.01,4.32-5.81,6.54-11.63,13.08-17.44,19.62,2.62.13,5.24.25,7.87.38-.45,8.92-20.27,4.53-20.42,13.46,4.06-.14,8.12-.29,12.18-.43.8,1.54.9,3.44.27,5.06-13.68,1.16-26.93,6.84-37.22,15.94,4.59.82,9.29,1.02,13.92.57,2.19,1.29-.53,4.4-2.91,5.27-9.83,3.58-19.67,7.17-29.5,10.75-7.38,2.69-15.07,5.42-22.88,4.59-9.98-1.05-18.49-7.79-24.94-15.48-20.81-24.84-26.24-61.57-51.95-81.3-4.83-3.71-10.36-6.79-13.88-11.76-3.52-4.97-4.16-12.77,5.87-15.74Z"/>
      <path class="cls-6" d="m845.64,732.34c10.41,20.46,37.89,23.52,57.26,35.83,17.4,11.05,28.41,30.31,33.18,50.36,4.77,20.05,3.91,41.01,1.8,61.51-3.3,32.04-9.57,63.68-15.84,95.28-2.09,10.52-4.17,21.05-6.26,31.57-.56,2.82-1.14,5.71-2.66,8.15-1.69,2.73-4.4,4.68-6.26,7.29-2.57,3.6-3.33,8.14-4.03,12.51-3.22,20.26-6.45,40.53-9.67,60.79-.43,2.71-.8,5.71.74,7.98,1.55,2.27,4.54,3.07,6.44,5.05,2.97,3.1,2.48,7.98,2.72,12.26.6,10.45,7.19,20.35,16.61,24.93-4.02,8.04-1.98,18.67,4.75,24.64,2.32,2.06,5.15,3.64,6.88,6.22,2.8,4.17,2,9.73,3.24,14.6s7.31,9.42,10.95,5.95c-3.6,7.03,2.77,14.73,7.44,21.1,7.12,9.71,11.02,21.74,10.96,33.77,4.61-11.52,4.11-24.98-1.35-36.12,7.37,6.15,14.75,12.3,22.12,18.44-.68-12.18-8.88-23.63-20.19-28.2-6.44-2.6-15.32-5.05-15.34-12-.01-3.39,2.44-6.58,1.85-9.92-.85-4.73-6.72-6.22-10.63-9.02-13.03-9.32-4.55-34.61-18.46-42.57-.04-16.36-7.84-32.53-20.63-42.73,15.27-39.24,25.25-80.31,35.19-121.23,5.45-22.43,10.89-44.86,16.34-67.3,2.61-10.74,5.23-21.56,5.66-32.6.63-16.2-3.47-32.17-4.84-48.32-1.74-20.45.31-43.04-12.15-59.35-17.91-23.42-56.18-21.17-75.91-43.08-4.31-4.79-8.09-10.94-14.37-12.4-6.28-1.47-15.01,8.01-5.56,26.59Z"/>
      <path class="cls-6" d="m620.26,751.09c-30.07,22.94-56.4,50.77-77.66,82.05-9.04,13.31-17.46,28.31-16.63,44.38,1.4,26.9,28.12,48.27,26.89,75.17,6.27,1.03,8.98,8.37,10.5,14.54,2.23,9.09,4.46,18.18,6.69,27.26.58,2.34,1.2,4.79,2.81,6.58,1.45,1.62,3.54,2.52,5.13,4,2.25,2.1,3.29,5.16,4.24,8.09,3.74,11.44,7.48,22.89,11.22,34.33,1.85,5.65,4.22,11.92,9.65,14.36-.83,10.25,1.86,20.76,7.53,29.35-7.67,4.07-13.05,12.18-13.81,20.84-.32,3.65.08,7.55-1.68,10.78-2.79,5.13-9.81,6.4-13.4,11.01-5.49,7.05-1.06,19.08-7.67,25.1-2.53,2.31-6.16,3.08-8.77,5.3-5.29,4.5-4.53,12.71-6.61,19.34-3.39,10.76-14.23,16.97-23.6,23.25-9.37,6.28-18.94,15.72-17.42,26.9,6.1-5.59,12.2-11.18,18.29-16.77.68,9.08,2.51,18.07,5.42,26.7,13.14-28.35,27.87-55.95,44.12-82.64,5.68-9.34,11.79-19.65,10.06-30.44,6.63-2.42,10.39-9.25,13.59-15.54,5.4-10.65,10.96-22.41,8.38-34.07-1.09-4.91-3.57-9.4-5.07-14.2-1.49-4.75-1.99-9.75-2.82-14.66-1.78-10.63-5.06-20.94-8.34-31.21-6.67-20.92-13.34-41.85-20.01-62.77-2.62-8.21-6.13-17.41-14.16-20.53,8-18.46-6.27-38.3-18.52-54.26-1.28-1.66-2.59-3.48-2.65-5.58-.05-1.83.89-3.52,1.79-5.11,8.91-15.62,18.24-31.72,32.77-42.32,4.89-3.57,10.3-6.45,14.83-10.47,7.06-6.27,11.52-14.87,16.65-22.79,8.22-12.68,18.51-24.02,30.35-33.41,7.77-6.16,17.18-16.11,11.43-24.19-3.14-4.42-9.72-5.16-14.76-3.14-5.04,2.02-8.34,6.8-18.8,14.78Z"/>
      <path class="cls-6" d="m613.02,415.18c.83,14.67,3.7,29.23,8.5,43.11,2.21,6.39,6.55,13.78,13.29,13.28,3.48-5.75,3.37-12.93,2.68-19.62-2.3-22.14-9.8-43.35-15.06-64.97-5.27-21.62-8.27-44.67-1.6-65.91-4.11,4.82-8.22,9.64-12.33,14.46,1.04-15.81-3.87-31.94-13.54-44.49-1.62-2.1-3.4-4.17-4.24-6.69-.94-2.84-.56-5.95-1.22-8.86-1.37-6.08-6.8-10.2-11.19-14.63-4.39-4.43-8.16-11.08-5.34-16.63-2.3-.41-4.61-.82-6.91-1.22,3.01-16.09-11.84-32.96-28.18-32.03,5.46-8.02.44-20.85-9.01-23.04-1.86-.43-3.93-.56-5.36-1.82-1.5-1.31-1.86-3.46-2.13-5.43-1.18-8.56-2.36-17.11-3.54-25.67-5.32,8.58-8.05,18.75-7.75,28.85-7.38-1.49-14.42-4.61-20.49-9.07-3.99,2.05.73,7.75,4.95,9.29,4.53,1.65,9.06,3.3,13.59,4.95,3.7,1.35,7.59,2.83,10.07,5.89,3.28,4.07,3.23,9.82,5.21,14.66,1.98,4.83,8.62,8.76,12.16,4.93-3.01,4.04-.73,9.96,2.75,13.6s8.09,6.23,10.84,10.45c1.92,2.95,2.77,6.46,4.31,9.63,3.22,6.63,9.63,11.61,16.84,13.1-2.14,8.98-3.06,20.84,5.15,25.05,1.82.93,3.9,1.33,5.58,2.49,4.85,3.38,3.77,10.62,3.93,16.53.17,5.91,5.79,13.17,10.61,9.75-.7,8.45,1.66,17.12,6.56,24.04-2.34.53-4.68,1.05-7.02,1.58,2.46,2.34,5.48,4.08,8.74,5.03-2.99,2.22-6.81,3.29-10.52,2.96,2.63,4.03,5.83,7.71,8.09,11.96,8.78,16.49,10.55,36.06,11.59,54.5Z"/>
      <path class="cls-6" d="m619.43,481.82c-23.19,7.37-44.56,20.39-61.74,37.61l5.45,5.19c-4.53,1.74-9.19,3.56-12.65,6.95-3.47,3.39-5.44,8.8-3.43,13.21-5.55,3.77-10.37,8.62-14.09,14.2-3.13-5.58-6.26-11.16-9.39-16.74,5.41-2.98,10.16-7.18,13.77-12.2-5.36,2.09-10.72,4.17-16.08,6.26-4.79-5.67-4.8-14.81-.02-20.5-4.14.93-8.28,1.87-12.42,2.8,3.79-4.5,7.16-9.36,10.03-14.5-5.13,2.22-10.26,4.45-15.39,6.67-.48-6.29-.95-12.57-1.43-18.86-1.68,4.89-3.98,9.57-6.83,13.88-2.46-9.71-4.55-19.52-6.29-29.38-1.47,11.27-.84,22.8,1.84,33.84-18.67-14.7-39.39-26.8-61.37-35.82-4.61-1.89-9.43-3.68-14.42-3.57-4.74.1-9.83,1.86-13.99-.41-1.61-.88-2.87-2.28-4.35-3.38-10.53-7.8-29.86.73-36.28-10.69-1.3,5.34-8.33,8.33-13.08,5.55-4.97-2.91-7.41-10.61-13.16-10.36-.76,7.64,5.84,15.21,13.52,15.5-6.41,1.64-12.23,5.46-16.28,10.69,14.58-.39,29.32-9.85,42.9-4.52,3.42,1.34,6.5,3.58,10.08,4.43s8.1-.28,9.35-3.73c1.53,6.69,12.38,8.37,15.86,2.46,2.41,9.9,12.81,17.17,22.94,16.04,2.66-.3,5.43-1.09,7.96-.22,2.95,1.02,4.77,4.02,7.51,5.52,4.07,2.22,9.59.84,13.25,3.68,1.84,1.43,2.83,3.67,4.07,5.65,5.22,8.36,16.29,12.55,25.73,9.74-3.53,1.22-7.06,2.45-10.59,3.67,3.72,3.71,9.34,5.41,14.49,4.37,3.43,5.9,6.87,11.8,10.3,17.69-4-1.34-8.86.86-10.49,4.75,8.8-1.56,18.24,4.84,20.05,13.59-5.31-.54-10.81,2.02-13.82,6.43,3.55,1.41,7.37,2.15,10.71,4.02,10.78,6.03,12.32,20.65,12.58,33,2.41-5.64,7.32-10.15,13.15-12.07-2.81,7.08-5.61,14.16-8.42,21.24,13.66-10.05,23.13-24.66,32.3-38.94,2.54-3.96,5.1-7.95,6.75-12.36,1.78-4.77,2.49-9.99,5.13-14.34,2.35-3.87,6.03-6.71,9.61-9.48,11.28-8.71,22.46-17.56,33.52-26.54,5.16-4.19,10.45-8.6,13.36-14.57s2.76-13.98-10.21-15.48Z"/>
    </g>
    <path class="cls-2" d="m776.92,239.28c-10.01-15.18-31.69-16.54-49.68-13.84-5.97.9-12.44,2.38-16.14,7.16-4.45,5.75-3.2,13.95-5.18,20.95-3.5,12.33-16.19,19.15-26.79,26.36-15.54,10.58-28.66,24.69-38.08,40.96-2,3.46-3.88,7.15-4.05,11.14-.39,8.91,8.09,16.17,16.86,17.79,8.77,1.63,17.71-.86,26.36-3,38.58-9.51,78.81-12.27,118.32-8.1,10.99,1.16,22.44,2.8,32.82-1,10.38-3.8,18.93-15.26,15.24-25.68-1.4-3.96-4.32-7.17-7.31-10.11-20.85-20.42-45.24-36.66-62.38-62.64Z"/>
    <path class="cls-2" d="m745.32,339.63c-32.53-2.43-65.86,9.12-89.91,31.16-24.05,22.04-38.46,54.24-38.86,86.86-.57,45.62,24.65,88.16,26.96,133.72,1.37,27-5.37,53.65-10.25,80.24-10.08,55-12.26,111.45-6.44,167.07,2.26,21.67,6.07,44.07,18.6,61.89,8.62,12.26,20.86,21.54,33.76,29.17,27.85,16.47,62.91,25.89,92.53,12.86,13.27-5.84,24.4-15.75,33.77-26.81,26-30.68,39.44-70.22,46.39-109.83,9.29-52.94,7.93-107.28,1.88-160.68-2.76-24.4-6.51-48.87-5.06-73.39,2.88-48.94,26.32-96.25,20.92-144.97-1.98-17.89-7.91-35.34-17.24-50.74-5.42-8.94-12.05-17.27-20.38-23.57-26.23-19.82-62.73-15.9-86.67-13Z"/>
    <path class="cls-1" d="m883.96,471.84c-7.64-6.65-15.28-13.29-22.92-19.94-2.27-1.98-4.73-4.04-7.71-4.43-6.8-.89-11.49,7.54-10.41,14.31,1.08,6.77,5.58,12.42,8.31,18.71,7.57,17.47.88,37.5-5.82,55.32-19.72,52.4-39.43,104.81-59.15,157.21-6.47,17.19-13.02,35.76-8.34,53.51,5.61,21.26,25.43,35,40,51.47,27.81,31.45,39.28,77.27,74.15,100.65,5.91,3.96,12.57,7.36,16.43,13.34,2.84,4.4,3.81,9.71,5.46,14.69,6.29,19.05,22.46,33.18,39.47,43.81,17.02,10.63,35.63,18.84,51.32,31.35,15.57,12.4,27.72,28.59,42.84,41.54,15.78,13.52,34.65,23.29,54.61,29.03,11.68,3.36,25.21,5.07,35.16-1.91,9.55-6.7,12.71-19.17,15.18-30.56,5.76-26.53,11.55-53.93,6.5-80.61-3.27-17.3-10.96-33.41-16.41-50.15-5.65-17.35-8.89-35.4-14.33-52.81-7.58-24.27-19.31-47-30.98-69.59-22.01-42.61-44.07-85.29-70.05-125.6-21.65-33.59-45.99-65.47-65.85-100.15-19.67-34.36-46.25-62.04-77.46-89.18Z"/>
    <path class="cls-1" d="m631.66,533.31c-1.69-17.18-3.38-34.36-5.07-51.54-.69-6.98-3.11-15.8-10.09-16.47-5.08-.49-9.13,3.95-12.26,7.98-101.56,130.74-186.51,274.38-252.16,426.36-12.55,29.04-24.63,59.96-21.03,91.4,3.02,26.34,16.75,50.07,30.23,72.9,4.63,7.83,9.95,16.25,18.56,19.17,11.51,3.91,23.51-3.51,33.38-10.62,41.13-29.61,81.78-59.88,121.92-90.81,15.98-12.31,32.41-25.36,41.35-43.45,5.56-11.26,7.89-23.9,13.39-35.2,6.89-14.16,18.34-25.46,28.82-37.21,38.66-43.35,66.29-96.47,79.57-153.01,2.79-11.86,4.96-24.16,2.97-36.18-1.99-12.02-6.88-24.92-17.94-30.02-7.98-3.67-12.95-8.97-22.73-26.32-4.31-7.65-26.8-65.6-28.9-86.97Z"/>
    <g id="Ebene_4" data-name="Ebene 4">
      <path class="cls-8" d="m844.75,466.52c1.15-2.2,2.82-4.13,4.84-5.57,1.35-.97,3.25-1.71,4.61-.75,1.4.99,1.35,3.17,2.57,4.39,1.66,1.65,4.57.57,6.18-1.13s2.75-3.95,4.82-5.03"/>
      <path class="cls-8" d="m863.74,462.89c16.21,11.2,26.49,28.99,35.25,46.64s16.77,36.12,30.16,50.58c3.79,4.09,8.06,7.88,13.16,10.15,7.56,3.37,16.68,3.01,23.96-.94"/>
      <path class="cls-8" d="m941.74,570.92c15.78,26.68,32.3,52.92,48.81,79.15,3.77,5.99,7.57,12.02,12.44,17.16,10.54,11.13,25.36,17.31,40.31,20.68"/>
      <path class="cls-8" d="m1000.25,663.38c11.11,29.98,30.97,55.94,52.65,79.43,8.56,9.28,19.02,18.92,31.63,18.53"/>
      <path class="cls-8" d="m921.42,553.48c16.47,56.13,55.02,102.54,87.18,151.41,21.02,31.94,39.59,65.49,62.04,96.44,17.2,23.71,36.71,45.97,50.39,71.87,9.85,18.66,16.72,39.24,30.38,55.32"/>
      <path class="cls-8" d="m859.22,466.63c.06,16.66,6.89,32.45,13.32,47.81,31.8,75.92,57.09,156.12,57.9,238.43.28,28.24-2.33,56.42-5.06,84.53-2.33,23.89-6.43,50.78-26.04,64.62"/>
      <path class="cls-8" d="m884.88,546.96c2.6-9.6,5.23-19.39,4.82-29.33-.3-7.44-2.28-15.12.12-22.17"/>
      <path class="cls-8" d="m891.33,523.28c4.03,25.53,18.76,47.87,28.97,71.62,6.95,16.16,11.85,33.18,19.42,49.06,7.02,14.74,16.25,28.33,23.44,42.98,8.04,16.39,13.44,33.93,18.81,51.39,17.38,56.51,34.88,113.7,38.19,172.72.9,16.1.75,32.31,3.29,48.23.78,4.91,1.98,10.09,5.51,13.59,3.46,3.43,8.48,4.59,13.14,6.01,40.58,12.36,67.4,52.16,106.76,68"/>
      <path class="cls-8" d="m968.14,650.11c5.66,28.97,17.43,56.34,29.12,83.45,3.52,8.17,7.08,16.41,12.23,23.66,5,7.04,11.38,12.98,17.13,19.43,10.97,12.34,19.59,26.56,27.71,40.94,30.85,54.63,55.28,112.59,80.09,170.22,5.26,12.22,10.93,24.95,21.36,33.21"/>
      <path class="cls-8" d="m992.36,773.1c4.49-5.95,10.13-11.04,16.51-14.91"/>
      <path class="cls-8" d="m855.94,531.08c17.02,34.22,24.43,72.35,29.91,110.17,2.62,18.1,4.84,36.53,2.17,54.62-1.92,13.07-6.36,25.68-8.22,38.77-1.86,13.08-.81,27.39,7.13,37.95"/>
      <path class="cls-8" d="m885.09,639.81c5,13.9,20.7,23.04,34.37,21.04,6.78-5.32,15.2-8.53,23.81-9.06"/>
      <path class="cls-8" d="m935.09,634.89c8.03-2.55,16.8-2.73,24.92-.49"/>
      <path class="cls-8" d="m825.32,759.16c-2.82-15.1,5.23-30.14,14.94-42.05,9.72-11.9,21.51-22.4,28.46-36.1,10.88-21.43,8.18-47.25,1.73-70.4-6.45-23.15-16.38-45.49-19.44-69.33"/>
      <path class="cls-8" d="m925.23,851.95c12.33,4.64,22.4,13.79,31.39,23.42,8.99,9.63,17.31,20.01,27.67,28.15,10.35,8.15,23.29,14,36.4,12.7"/>
      <path class="cls-8" d="m586.12,912.32c-22.76-38.09-30.81-83.53-30.19-127.89.62-44.37,9.44-88.16,18.36-131.62,4.36-21.25,8.76-42.49,13.19-63.72"/>
      <path class="cls-8" d="m356.64,1053.22c8.72-19.99,29.69-31.36,49.63-40.19,19.94-8.83,41.46-17.5,54.09-35.28,16.44-23.14,12.98-54.22,14.1-82.58,1.87-47.3,18.34-92.64,34.62-137.09,13.68-37.35,27.37-74.73,43.69-111,9.1-20.22,19.22-40.38,34.34-56.59"/>
      <path class="cls-8" d="m544.66,665.53c8.85-1.03,17.95.16,26.23,3.44"/>
      <path class="cls-8" d="m474.76,918.44c9.3-1.8,16.75-8.53,23.67-14.99,9.01-8.4,18.02-16.81,27.03-25.21,5.38-5.02,10.84-10.1,17.35-13.52,6.51-3.42,14.31-5.04,21.3-2.76"/>
      <path class="cls-8" d="m344.65,1029.41c44.1-56.26,55.56-131.69,93.47-192.3,11.03-17.64,24.21-33.85,35.42-51.37,15.94-24.91,27.81-52.41,35.02-81.09,4.41-17.53,7.37-36.15,18.13-50.68,6.15-8.31,14.66-14.95,19.19-24.24,3.86-7.92,4.51-17.17,8.82-24.86,3.55-6.34,9.28-11.11,14.25-16.41,16.32-17.42,24.45-40.77,32.14-63.37"/>
      <path class="cls-8" d="m482.34,771.06c3.71,6.94,9.26,12.89,15.93,17.08"/>
      <path class="cls-8" d="m437.97,724.05c7.98-10.39,16.43-21.17,28.35-26.62,4.47-2.04,9.31-3.27,13.58-5.7,6.6-3.77,11.28-10.1,15.69-16.29,7.43-10.42,14.69-20.96,21.95-31.51,26.89-39.05,53.84-78.21,75.89-120.18,4.56-8.69,10.07-18.43,19.63-20.63"/>
      <path class="cls-8" d="m511.08,602.92c17.89-16.05,31.08-36.52,45.92-55.42,14.84-18.9,32.34-36.98,54.9-45.25"/>
      <path class="cls-8" d="m607.99,775.82c-.93-32.18-1.86-64.43.7-96.52,1.67-20.96,4.82-41.78,7.97-62.57,3.35-22.11,6.7-44.23,10.04-66.34"/>
      <path class="cls-8" d="m572.93,659.89c6.53-.04,13.03-2.11,18.38-5.85,4.02-2.81,7.72-6.68,12.59-7.25"/>
      <path class="cls-8" d="m593.08,627.27c7.38-24.81,12.07-50.41,13.97-76.22.78-10.59,1.16-21.52,5.59-31.18,4.14-9.04,11.89-18.24,8.59-27.62"/>
      <path class="cls-8" d="m412.66,776.82c11.97-2.65,21.92-10.81,30.73-19.34,27.38-26.47,48.81-59.04,62.28-94.66"/>
      <path class="cls-8" d="m332.94,965.49c21.77-13.78,35.47-37.26,45.46-61s17.21-48.81,30.2-71.06c8.88-15.21,20.26-28.78,31.14-42.64,28.28-36.03,53.28-70.22,74.92-110.6"/>
    </g>
    <path class="cls-5" d="m772.35,274.09c-3.6-5.11-7.33-10.6-7.56-16.84-.22-6.04,3.24-12.07,8.56-14.93,1.15-.61,2.44-1.1,3.73-.91,3.31.48,4.4,4.7,4.38,8.04-.07,11.73-4.34,24.22.88,34.72.56,1.12,1.38,2.31,2.63,2.49,2.11.29,3.29-2.34,3.61-4.44,1.78-11.68-.77-24.01,3.11-35.16.58-1.65,1.58-3.49,3.31-3.71,2.72-.35,3.99,3.27,4.07,6.01.33,12.22-3.08,24.9,1.03,36.4.57,1.6,1.69,3.41,3.38,3.29,1.69-.12,2.55-2.05,2.93-3.7,2.5-10.75.24-22.33,3.73-32.8.37-1.1.94-2.32,2.06-2.64,1.93-.55,3.28,1.9,3.65,3.87,2.34,12.38-1.72,25.65,2.45,37.53.64,1.82,2.42,3.92,4.08,2.94.76-.45,1.06-1.39,1.27-2.25,2.51-10.67-.61-22.53,4.11-32.42.51-1.07,1.36-2.24,2.54-2.15,1.32.1,1.94,1.65,2.21,2.95,2.09,10.02,1.1,20.44,2.49,30.59.17,1.21.39,2.47,1.12,3.45.74.98,2.15,1.55,3.22.97.7-.38,1.09-1.13,1.39-1.87,3.25-8.02-.8-18.11,3.96-25.34.31-.47.7-.95,1.24-1.07,1.16-.27,1.96,1.11,2.33,2.24,2.96,9.01,4.8,18.37,5.49,27.83"/>
  </g>
  <g id="Ebene_2" data-name="Ebene 2">
    <path class="cls-4" d="m842.08,256.65c-11.66-7.71-24.35-13.86-37.63-18.24-9.58-3.15-19.91-5.39-29.69-2.95-9.78,2.44-18.71,10.73-18.95,20.81-.24,10.42,8.17,18.76,15.94,25.7,3.76,3.36,7.57,6.75,12.05,9.05,4.83,2.48,10.23,3.59,15.55,4.66,18.6,3.77,37.21,7.54,55.81,11.31,1.84.37,3.92.7,5.45-.38,1.64-1.15,1.96-3.42,2.03-5.43.45-14.46-2.53-32.6-20.57-44.54Z"/>
    <path class="cls-7" d="m723.78,249.61c-5.31-5.9-13.9-8.02-21.78-7.13-7.89.88-15.23,4.38-22.16,8.26-11.82,6.61-22.94,14.46-33.13,23.39-10.38,9.1-20.2,20.1-22.75,33.66-.8,4.24-.51,9.34,2.97,11.89,3.65,2.66,8.74,1.15,12.92-.55,6.62-2.68,13.15-5.59,19.88-7.95,14.87-5.2,30.86-7.78,44.39-15.85s24.24-24.11,19.65-45.71Z"/>
  </g>
  <g id="Ebene_9" data-name="Ebene 9">
    <path class="cls-3" d="m629.27,303.82c6.43-15.7,16.44-22.94,29.4-33.58,6.25-5.13,12.96-9.69,20.01-13.65,9.93-5.58,18.41-10.72,34.28-7.54,1.44.29,2.33.2,3.59.95,2.78,1.66,2.36,6.54,2.94,9.68,3.21,17.22-10.24,27.95-23.2,34.14s-28.49,8.4-41.61,14.25c-6.09,2.72-11.82,4.7-18.07,7.02-.96.36-5.05,2.89-5.99,2.47-3.01-1.34-2.22-5.66-.91-8.35,10.41-21.34,41.33-49.64,70.83-55.84,4.52-.95,9.49-3.64,13.13.09,1.2,1.23,1.83,2.9,1.94,4.61.43,6.88,2.68,13.92-4.41,20.19-10.61,9.39-16.31,11.25-33.69,17.55-9.1,3.3-24.72,8.92-34.39,12.63-2.98,1.14-10.63,4.72-9.19,1.87,9-17.8,26.66-35.13,48.21-45.86,5.61-2.79,26.01-11.15,28.36-7.62,3.05,4.57,3.76,13.29-.5,16.8-13.58,11.15-38.27,20.88-55.12,26.15-.62.19-7.79,3.65-10.12,3.82-1.95.15-2.6-2.1-1.21-3.48,9.73-9.73,21.98-27.92,52.72-36.72,2.33-.67,6.75-3.73,9.28-3.5,1.68.15,4.07,1.72,4.46,3.36.62,2.63-4.92,8.61-7.31,10.59-14.75,12.2-70.89,35.18-42.18,15.11,3.17-3.76,6.72-7.26,10.94-9.79,2.2-1.32,4.55-2.36,6.89-3.4,2.94-1.3,5.89-2.61,8.83-3.91,4.83-2.14,9.67-4.28,14.5-6.42.24-.11.52-.21.75-.1.22.1.32.35.37.59.41,1.96-1.44,3.59-3.09,4.73-2.52,1.74-5.07,3.47-7.83,4.8-2.16,1.04-4.43,1.82-6.64,2.73-2.29.94-4.51,2.02-6.73,3.1-3.55,1.73-7.13,3.47-10.29,5.83-1.24.93-2.42,1.95-3.74,2.77-1.29.8-2.71,1.4-4.19,1.77"/>
    <path class="cls-3" d="m782.39,260.34c10.19,5.47,26.89,11.93,41.76,19.9.6.32-2.55,2.1-4.03,1.46-11.16-4.81-18.53-5.08-35.27-15.28-2.29-1.39-6.8-4.94-6.53-7.66.21-2.07,11.05-1.12,13.07-1.15s12.74,5.37,14.54,6.34c16.97,9.09,15.84,12.64,31.45,24.03-19.33-3.7-39.63-7.7-56.16-18.75-4.64-3.1-8.97-8.99-6.42-14,2.66-5.23,27.69-1.32,32.53,1.84,21.2,13.86,26.39,20.99,44.36,40.05-12.91-5.83-24.81-7.22-38.48-10.7-13.67-3.47-28.01-4.85-38.46-14.6-2.9-2.71-5.08-9.41-6.12-13.29-1.04-3.88-.04-8.55,3.19-10.78,3.11-2.15,10.75-3.07,14.42-2.24,28.16,6.37,33.79,12.94,57.19,33.13,2.16,1.87,14.86,20.32,12.71,22.16-1.3,1.11-3.23.77-4.87.3-5.89-1.7-14-2.06-19.83-3.98-13.59-4.47-26.17-4.98-39.65-9.81-13.48-4.83-28.58-13.14-29.62-27.78-.23-3.3,2.87-12.01,5.42-14.01,1.15-.9,4.58-3.84,6-4.19,9.64-2.34,17.9-.71,27.21,2.89,9.31,3.6,20.15,8.89,31.12,18.01,12.8,10.64,8.03,6.17,18.12,19.5,1.82,3.85,4.02,8.06,8.03,9.5-.47-4.43-2.55-8.51-4.6-12.47-2.25-4.36-4.57-8.81-8.12-12.2-1.6-1.52-3.41-2.8-5.21-4.07-1.96-1.38-3.91-2.75-5.87-4.13-1.11-.78-2.22-1.56-3.34-2.35-2.22-1.56-4.44-3.12-6.86-4.35-2.76-1.41-5.76-2.36-8.41-3.96-1.21-.72-2.34-1.58-3.58-2.24-1.08-.58-2.22-1-3.37-1.43-4.18-1.56-8.38-3.13-12.74-4.09"/>
  </g>
</svg>