<?xml version="1.0" encoding="UTF-8"?>
<svg id="Ebene_1" data-name="Ebene 1" xmlns="http://www.w3.org/2000/svg" width="326.03mm" height="336.26mm" viewBox="0 0 924.17 953.18">
  <defs>
    <style>
      .cls-1 {
        fill: none;
        stroke: #1d1d1b;
        stroke-linecap: round;
        stroke-linejoin: round;
        stroke-width: 10px;
      }
    </style>
  </defs>
  <path class="cls-1" d="m442.45,493.01c-58.98-5.94-118.22,41.5-125.32,100.35-1.3,10.82-.99,22.12,3.28,32.14,7.5,17.58,25.81,28.16,44.1,33.74s37.63,7.41,55.56,14.05c69.79,25.83,100.67,115.96,171.55,138.6,60.64,19.37,123.76-18.62,173.4-58.49,36.3-29.16,71.49-60.89,96.3-100.29,34.46-54.71,46.61-120.43,52.69-184.8,8.72-92.33,6.36-185.69-7.02-277.46-5.68-38.99-13.94-79.11-37.15-110.95-42.78-58.71-123.58-73.65-196.22-74.79-65.72-1.03-132.02,5.48-194.72,25.19-60.37,18.98-116.26,49.77-174.94,73.46-83.08,33.54-173.42,53.7-245.61,106.76-19.49,14.33-37.88,31.63-47.13,53.98-18.06,43.63,5.18,96.61,44.23,123.15,39.05,26.54,89.54,30.77,136.3,24.19,21.76-3.06,45.11-8.04,64.82,1.69,32.15,15.88,35.66,59.54,34.75,95.39"/>
  <path class="cls-1" d="m288.33,445.48c20.29-7.49,43.8-5.72,62.74,4.72s32.99,29.37,37.5,50.53"/>
  <path class="cls-1" d="m132.64,413.31c13.13,39.15,1.31,82.38-16.43,119.67-17.74,37.29-41.43,71.99-53.88,111.36-19.57,61.86-8.67,131.89,25.89,186.81,34.56,54.91,91.53,94.49,154.23,111.18,20.65,5.5,42.76,8.59,63.26,2.55,25.02-7.38,44.43-27.33,68.51-37.36,32.68-13.61,70.1-7.57,104.08,2.37,33.97,9.94,67.5,23.66,102.87,24.97,43.36,1.6,87.05-16.82,116.17-48.98,24.41-26.96,38.5-66.15,26.52-100.49"/>
  <path class="cls-1" d="m660.17,136.88c-73.69,50.41-123.15,134.73-131.18,223.65-8.03,88.92,25.52,180.73,89,243.53,5.4,5.34,12.59,10.89,19.84,8.62,4.34-1.36,7.35-5.22,10.01-8.91,94.24-130.64,104.63-316.54,12.33-466.89Z"/>
  <path class="cls-1" d="m634.05,605.13c-19.77-112.03-22.37-227.08-7.66-339.89,5.77-44.26,14.41-88.87,34.6-128.68"/>
</svg>