<?xml version="1.0" encoding="UTF-8"?>
<svg id="Ebene_2" data-name="Ebene 2" xmlns="http://www.w3.org/2000/svg" width="420mm" height="326.12mm" viewBox="0 0 1190.55 924.43">
  <defs>
    <style>
      .cls-1 {
        stroke-linejoin: round;
      }

      .cls-1, .cls-2 {
        fill: #fff;
        stroke: #1d1d1b;
        stroke-dasharray: 0 0 0 0 0 0 0 0 0 0 0 0;
        stroke-linecap: round;
        stroke-width: 4px;
      }

      .cls-2 {
        stroke-miterlimit: 10;
      }
    </style>
  </defs>
  <g id="Ebene_3" data-name="Ebene 3">
    <path class="cls-2" d="m1031.87,417.45c5.82.18,12.88,3.27,16.64-1.16,1.12-1.32,1.6-3.05,2.32-4.63,3.18-6.97,11.93-10.85,19.23-8.52,6.86,2.19,11.5,8.9,13.22,15.89,1.72,6.99,1.01,14.33.29,21.49-2.06,20.55-4.12,41.1-6.19,61.65-.5,5.02-1.85,11.11-6.69,12.52-3.5,1.02-7.29-1.21-9.21-4.3s-2.4-6.84-2.76-10.46c-1.31-13.31-1.61-26.71-.89-40.06.19-3.62.45-7.31-.53-10.8s-3.51-6.78-7.04-7.58c-2.19-.5-4.46,0-6.7.12-4.99.28-10.06-1.39-11.69-24.16Z"/>
  </g>
  <rect class="cls-1" x="1007.73" y="63.99" width="37.03" height="724.5"/>
  <path class="cls-1" d="m353.23,662.77V170.77l486.05-1.5v492l-486.05,1.5Zm445.79-43.43V202.34h-182v417h182Zm-219,0V202.34h-196v417h196Z"/>
  <polygon class="cls-1" points="839.27 661.27 839.27 169.27 1007.73 63.99 1007.73 788.49 839.27 661.27"/>
  <polygon class="cls-1" points="863.27 640.52 863.27 183.45 989.27 110.99 987.74 723.57 863.27 640.52"/>
  <path class="cls-2" d="m162.67,418.95c-5.82.18-12.88,3.27-16.64-1.16-1.12-1.32-1.6-3.05-2.32-4.63-3.18-6.97-11.93-10.85-19.23-8.52-6.86,2.19-11.5,8.9-13.22,15.89-1.72,6.99-1.01,14.33-.29,21.49,2.06,20.55,4.12,41.1,6.19,61.65.5,5.02,1.85,11.11,6.69,12.52,3.5,1.02,7.29-1.21,9.21-4.3,1.93-3.09,2.4-6.84,2.76-10.46,1.31-13.31,1.61-26.71.89-40.06-.19-3.62-.45-7.31.53-10.8s3.51-6.78,7.04-7.58c2.19-.5,4.46,0,6.7.12,4.99.28,10.06-1.39,11.69-24.16Z"/>
  <rect class="cls-1" x="149.79" y="66.62" width="37.03" height="721"/>
  <polygon class="cls-1" points="353.23 662.77 353.23 170.77 186.81 66.62 186.81 787.62 353.23 662.77"/>
  <polygon class="cls-1" points="331.27 642.02 331.27 184.95 205.27 112.49 206.8 725.07 331.27 642.02"/>
  <path class="cls-1" d="m881.56,333.18c8.08-20.15,20.17-38.68,35.35-54.2,8.29-8.47,18.15-17.43,18.56-29.27.19-5.7-1.93-11.46-.67-17.03.85-3.76,3.16-6.99,5.42-10.11,5.42-7.49,10.84-14.98,16.26-22.47"/>
  <path class="cls-1" d="m878.4,494.63c12.65-24.39,25.29-48.79,37.94-73.18,1.3-2.51,2.61-5.03,4.29-7.3,2.45-3.32,5.63-6.01,8.67-8.8,16.35-15.02,29.35-33.67,37.75-54.22"/>
  <path class="cls-1" d="m898.35,626.32c14.82-6.07,25.61-20.96,26.78-36.92.24-3.27.14-6.71,1.67-9.61,1.13-2.14,3.03-3.75,4.88-5.31,7.5-6.29,15.01-12.58,22.51-18.88"/>
  <path class="cls-1" d="m230.68,346.21c5.82-14.61,11.65-29.22,17.47-43.83,1.37-3.44,2.8-6.97,5.35-9.65,2.11-2.23,4.86-3.73,7.39-5.47,10.02-6.91,16.59-17.67,22.86-28.1,9.08-15.11,18.17-30.23,27.25-45.34"/>
  <path class="cls-1" d="m231.05,560.59c-.06-20.55,12.07-38.9,23.73-55.82,5.6-8.12,11.22-16.28,18.01-23.44,4.62-4.87,9.86-9.39,12.76-15.45,2.27-4.74,2.91-10.06,4.14-15.16,2.31-9.63,6.8-18.73,13.03-26.44"/>
  <path class="cls-1" d="m273.41,629.33l20.73-39.58"/>
</svg>