<?xml version="1.0" encoding="UTF-8"?>
<svg id="Ebene_2" data-name="Ebene 2" xmlns="http://www.w3.org/2000/svg" width="344.99mm" height="257mm" viewBox="0 0 977.91 728.5">
  <defs>
    <style>
      .cls-1 {
        stroke-miterlimit: 10;
      }

      .cls-1, .cls-2 {
        fill: #fbfbf2;
        stroke: #1d1d1b;
        stroke-dasharray: 0 0 0 0 0 0 0 0 0 0 0 0;
        stroke-linecap: round;
        stroke-width: 4px;
      }

      .cls-2 {
        stroke-linejoin: round;
      }
    </style>
  </defs>
  <g id="Ebene_3" data-name="Ebene 3">
    <path class="cls-1" d="m923.56,355.5c5.8.2,12.9,3.3,16.6-1.2,1.1-1.3,1.6-3,2.3-4.6,3.2-7,11.9-10.9,19.2-8.5,6.9,2.2,11.5,8.9,13.2,15.9s1,14.3.3,21.5c-2.1,20.5-4.1,41.1-6.2,61.6-.5,5-1.8,11.1-6.7,12.5-3.5,1-7.3-1.2-9.2-4.3-1.9-3.1-2.4-6.8-2.8-10.5-1.3-13.3-1.6-26.7-.9-40.1.2-3.6.4-7.3-.5-10.8s-3.5-6.8-7-7.6c-2.2-.5-4.5,0-6.7.1-4.9.4-10-1.3-11.6-24h0Z"/>
  </g>
  <rect class="cls-2" x="899.36" y="2" width="37" height="724.5"/>
  <path class="cls-2" d="m244.86,600.8V108.8l486.1-1.5v492l-486.1,1.5h0Zm445.8-43.5V140.3h-182v417h182Zm-219,0V140.3h-196v417h196Z"/>
  <polygon class="cls-2" points="730.96 599.3 730.96 107.3 899.36 2 899.36 726.5 730.96 599.3"/>
  <polygon class="cls-2" points="754.96 578.5 754.96 121.5 880.96 49 879.36 661.6 754.96 578.5"/>
  <path class="cls-1" d="m54.36,357c-5.8.2-12.9,3.3-16.6-1.2-1.1-1.3-1.6-3-2.3-4.6-3.2-7-11.9-10.9-19.2-8.5-6.9,2.2-11.5,8.9-13.2,15.9s-1,14.3-.3,21.5c2.1,20.5,4.1,41.1,6.2,61.6.5,5,1.8,11.1,6.7,12.5,3.5,1,7.3-1.2,9.2-4.3,1.9-3.1,2.4-6.8,2.8-10.5,1.3-13.3,1.6-26.7.9-40.1-.2-3.6-.4-7.3.5-10.8s3.5-6.8,7-7.6c2.2-.5,4.5,0,6.7.1,4.9.4,9.9-1.3,11.6-24h0Z"/>
  <rect class="cls-2" x="41.46" y="4.6" width="37" height="721"/>
  <polygon class="cls-2" points="244.86 600.8 244.86 108.8 78.46 4.6 78.46 725.6 244.86 600.8"/>
  <polygon class="cls-2" points="222.96 580 222.96 123 96.96 50.5 98.46 663.1 222.96 580"/>
  <path class="cls-2" d="m773.26,271.2c8.1-20.1,20.2-38.7,35.3-54.2,8.3-8.5,18.2-17.4,18.6-29.3.2-5.7-1.9-11.5-.7-17,.8-3.8,3.2-7,5.4-10.1,5.4-7.5,10.8-15,16.3-22.5"/>
  <path class="cls-2" d="m770.06,432.6c12.7-24.4,25.3-48.8,37.9-73.2,1.3-2.5,2.6-5,4.3-7.3,2.5-3.3,5.6-6,8.7-8.8,16.3-15,29.3-33.7,37.8-54.2"/>
  <path class="cls-2" d="m789.96,564.3c14.8-6.1,25.6-21,26.8-36.9.2-3.3.1-6.7,1.7-9.6,1.1-2.1,3-3.8,4.9-5.3,7.5-6.3,15-12.6,22.5-18.9"/>
  <path class="cls-2" d="m122.36,284.2c5.8-14.6,11.6-29.2,17.5-43.8,1.4-3.4,2.8-7,5.4-9.6,2.1-2.2,4.9-3.7,7.4-5.5,10-6.9,16.6-17.7,22.9-28.1,9.1-15.1,18.2-30.2,27.2-45.3"/>
  <path class="cls-2" d="m122.76,498.6c-.1-20.5,12.1-38.9,23.7-55.8,5.6-8.1,11.2-16.3,18-23.4,4.6-4.9,9.9-9.4,12.8-15.5,2.3-4.7,2.9-10.1,4.1-15.2,2.3-9.6,6.8-18.7,13-26.4"/>
  <path class="cls-2" d="m165.06,567.3l20.7-39.6"/>
</svg>